<?xml version="1.0" encoding="UTF-8" standalone="no"?>
<!-- Generator: Adobe Illustrator 21.0.0, SVG Export Plug-In . SVG Version: 6.00 Build 0)  -->
<svg id="Ebene_2" style="enable-background:new 0 0 248.2 23" xmlns="http://www.w3.org/2000/svg" xml:space="preserve" viewBox="0 0 248.2 23" version="1.1" y="0px" x="0px" xmlns:xlink="http://www.w3.org/1999/xlink">
<style type="text/css">
	.st0{fill:#2D2D2D;}
	.st1{fill:#FFB200;}
	.st2{fill:#FFFFFF;}
</style>
	<path class="st0" d="m113.2 7.8h-2.4v4.9c0 1.4-0.8 2-1.8 2s-1.8-0.6-1.8-2v-4.9h-2.4v5.1c0 2.8 2 4 4.2 4s4.2-1.2 4.2-4v-5.1zm-10.6 0h-7.5v2.1h4.3l-4.4 5.1v1.7h7.7v-2.1h-4.5l4.4-5v-1.8zm-13.9 0h-3.2v-2.6h-2.4v2.6h-1.7v2.1h1.7v3.4c0 2.3 1.1 3.5 3.3 3.5 1.3 0 2.2-0.4 2.9-0.9l-0.9-1.9c-0.5 0.3-1.1 0.6-1.7 0.6-0.7 0-1.3-0.4-1.3-1.5v-3.2h3.2v-2.1zm-8.5 0.6c-1.2-0.6-2.3-0.8-3.7-0.8-2.3 0-3.7 1.1-3.7 2.9 0 1.5 1 2.4 3.1 2.7l0.7 0.1c1 0.1 1.5 0.4 1.5 0.8 0 0.5-0.5 0.8-1.6 0.8-1.3 0-2.3-0.4-3-0.9l-0.9 1.8c1.2 0.8 2.7 1 3.9 1 2.6 0 4.1-1.2 4.1-3 0-1.5-1.1-2.4-3-2.7l-0.8-0.1c-0.8-0.1-1.4-0.2-1.4-0.8 0-0.5 0.5-0.8 1.4-0.8 1 0 2.1 0.4 2.8 0.7l0.6-1.7zm-9.8-0.8c-1.1 0-1.9 0.4-2.5 1.2v-1h-2.3v8.9h2.4v-4.8c0-1.3 0.8-2 1.9-2 0.5 0 1.1 0.1 1.4 0.3l0.4-2.4c-0.4-0.1-0.8-0.2-1.3-0.2m-11.1 2c1 0 1.7 0.6 1.9 1.8h-3.9c0.3-1.1 0.9-1.8 2-1.8m0.1-2c-2.7 0-4.5 1.9-4.5 4.7s1.9 4.6 4.6 4.6c1.5 0 2.8-0.4 3.8-1.3l-1.5-1.6c-0.6 0.5-1.5 0.9-2.2 0.9-1.1 0-2-0.6-2.3-1.8h6.3v-0.8c0-2.8-1.7-4.7-4.2-4.7m-15.2 2.2c1.3 0 2.4 1 2.4 2.4s-1 2.4-2.4 2.4c-1.3 0-2.3-1-2.3-2.4s0.9-2.4 2.3-2.4m-0.1-2.2c-2.8 0-4.8 2-4.8 4.7s2 4.7 4.8 4.7 4.8-2 4.8-4.7-2.1-4.7-4.8-4.7m-10.2 0c-1.2 0-2.3 0.4-3 1.5-0.6-0.9-1.6-1.5-2.9-1.5-1 0-2 0.3-2.6 1.3v-1h-2.3v8.9h2.4v-4.9c0-1.3 0.9-2 1.9-2 1.1 0 1.7 0.7 1.7 2v4.9h2.4v-4.9c0-1.3 0.8-2 1.9-2s1.7 0.7 1.7 2v4.9h2.4v-5.8c-0.1-2-1.5-3.4-3.6-3.4m-16.7 0c-1.2 0-2.3 0.4-3 1.5-0.6-0.9-1.6-1.5-2.9-1.5-1 0-2 0.3-2.6 1.3v-1h-2.4v8.9h2.4v-4.9c0-1.3 0.8-2 1.9-2s1.7 0.7 1.7 2v4.9h2.4v-4.9c0-1.3 0.9-2 1.9-2 1.1 0 1.7 0.7 1.7 2v4.9h2.4v-5.8c0-2-1.4-3.4-3.5-3.4m-14.5-4.2c-0.9 0-1.5 0.7-1.5 1.5s0.7 1.5 1.5 1.5 1.5-0.7 1.5-1.5-0.7-1.5-1.5-1.5m1.2 4.4h-2.4v8.9h2.4v-8.9z"/>
	<path class="st0" d="m244.2 3.3c-2.2-2.1-5.2-3.3-8.4-3.3h-104c-3.3 0-6.3 1.2-8.5 3.3s-3.4 5-3.4 8.2 1.2 6.1 3.4 8.2 5.2 3.3 8.5 3.3h103.9c3.3 0 6.3-1.2 8.5-3.3s3.4-5 3.4-8.2-1.2-6.1-3.4-8.2z"/>
		<path class="st1" d="m243.5 3.9c-2-1.9-4.8-3-7.8-3h-64.2c4.2 1.7 7 5.7 7 10.6s-2.8 8.9-7 10.6h64.1c3 0 5.8-1.1 7.8-3s3.1-4.6 3.1-7.6c0.1-2.9-1-5.6-3-7.6z"/>
	<g id="welt.de">
		<path class="st0" d="m190.3 14l1.9-6.2h2.5l-3 8.9h-2.7l-2-6-1.9 6h-2.7l-3-8.9h2.5l1.9 6.2 2-6.2h2.5l2 6.2z"/>
		<path class="st0" d="m203.8 12.2v0.8h-6.3c0.3 1.3 1.2 1.8 2.3 1.8 0.8 0 1.6-0.3 2.2-0.9l1.4 1.5c-1 0.9-2.3 1.3-3.8 1.3-2.7 0-4.6-1.8-4.6-4.6s1.8-4.7 4.5-4.7c2.5 0.2 4.2 2.1 4.3 4.8zm-6.4-0.8h3.9c-0.2-1.1-0.9-1.8-1.9-1.8-1.1 0-1.8 0.7-2 1.8z"/>
		<path class="st0" d="m207.4 16.7h-2.4v-12.2h2.4v12.2z"/>
		<path class="st0" d="m215.8 9.9h-3.2v3.2c0 1.1 0.6 1.5 1.3 1.5 0.6 0 1.2-0.3 1.7-0.6l0.9 1.9c-0.8 0.5-1.7 0.9-2.9 0.9-2.2 0-3.3-1.2-3.3-3.5v-3.4h-1.7v-2.1h1.7v-2.6h2.4v2.6h3.2v2.1z"/>
		<path class="st0" d="m228.3 8.7v-4.2h2.4v12.2h-2.3v-1c-0.6 0.7-1.4 1.2-2.7 1.2-2.4 0-4.3-2-4.3-4.7s1.8-4.7 4.3-4.7c1.2 0.1 2.1 0.6 2.6 1.2zm-4.4 3.5c0 1.4 0.9 2.4 2.3 2.4s2.3-1 2.3-2.4-0.9-2.4-2.3-2.4c-1.4 0-2.3 1.1-2.3 2.4z"/>
		<path class="st0" d="m241.1 12.2v0.8h-6.3c0.3 1.3 1.2 1.8 2.3 1.8 0.8 0 1.6-0.3 2.2-0.9l1.4 1.5c-1 0.9-2.3 1.3-3.8 1.3-2.7 0-4.6-1.8-4.6-4.6s1.8-4.7 4.5-4.7c2.6 0.2 4.3 2.1 4.3 4.8zm-6.3-0.8h3.9c-0.2-1.1-0.9-1.8-1.9-1.8-1.1 0-1.8 0.7-2 1.8z"/>
		<path class="st0" d="m220.8 15.3c0.1 0.9-0.7 1.7-1.6 1.6-0.8 0-1.4-0.7-1.4-1.4-0.1-0.9 0.7-1.7 1.6-1.6 0.7 0 1.4 0.6 1.4 1.4z"/>
	</g>
	<g id="immo">
		<path class="st2" d="m131.6 4.9c0 0.9-0.7 1.5-1.5 1.5-0.9 0-1.5-0.7-1.5-1.5 0-0.9 0.7-1.5 1.5-1.5 0.9 0 1.5 0.7 1.5 1.5zm-0.3 11.8h-2.4v-8.9h2.4v8.9z"/>
		<path class="st2" d="m148.1 11v5.6h-2.4v-4.9c0-1.3-0.6-2-1.7-2-1 0-1.9 0.7-1.9 2v4.9h-2.4v-4.9c0-1.3-0.6-2-1.7-2-1 0-1.9 0.7-1.9 2v4.9h-2.4v-8.8h2.3v1c0.6-0.9 1.6-1.3 2.6-1.3 1.3 0 2.3 0.6 2.9 1.5 0.7-1.1 1.8-1.5 3-1.5 2.2 0.1 3.6 1.5 3.6 3.5z"/>
		<path class="st2" d="m164.9 11v5.6h-2.4v-4.9c0-1.3-0.6-2-1.7-2-1 0-1.9 0.7-1.9 2v4.9h-2.4v-4.9c0-1.3-0.6-2-1.7-2-1 0-1.9 0.7-1.9 2v4.9h-2.4v-8.8h2.3v1c0.6-0.9 1.6-1.3 2.6-1.3 1.3 0 2.3 0.6 2.9 1.5 0.7-1.1 1.8-1.5 3-1.5 2.2 0.1 3.6 1.5 3.6 3.5z"/>
		<path class="st2" d="m176.3 12.2c0 2.7-2 4.7-4.8 4.7s-4.8-2-4.8-4.7 2-4.7 4.8-4.7c2.8 0.1 4.8 2.1 4.8 4.7zm-7.1 0c0 1.4 1 2.4 2.3 2.4s2.4-1 2.4-2.4-1-2.4-2.4-2.4c-1.3 0-2.3 1-2.3 2.4z"/>
	</g>
</svg>
